<?xml version="1.0" encoding="UTF-8"?>
<svg id="Layer_2" data-name="Layer 2" xmlns="http://www.w3.org/2000/svg" viewBox="0 0 1332.5 213.26">
  <defs>
    <style>
      .cls-1 {
        fill: #fff;
      }

      .cls-2 {
        fill: #fbaf00;
      }
    </style>
  </defs>
  <g id="Layer_1-2" data-name="Layer 1">
    <g>
      <g>
        <path class="cls-1" d="m241.13,27.42c0-3.23.11-5.66.32-7.28.21-1.61.88-3.48,2-5.59,1.97-3.8,7.45-5.7,16.45-5.7,9.84,0,15.68,2.6,17.51,7.8.7,2.39,1.05,6.05,1.05,10.97v117.28c0,3.38-.11,5.84-.32,7.38-.21,1.55-.88,3.38-2,5.48-1.97,3.8-7.45,5.7-16.45,5.7-9.84,0-15.61-2.67-17.3-8.02-.84-2.25-1.27-5.83-1.27-10.76V27.42Z"/>
        <path class="cls-1" d="m364.74,52.31c14.06,0,25.77,5.38,35.12,16.14,9.35,10.76,14.03,23.87,14.03,39.34v37.12c0,3.24-.11,5.66-.32,7.28-.21,1.62-.81,3.41-1.79,5.38-1.97,3.8-7.46,5.7-16.45,5.7-9.99,0-15.75-2.6-17.3-7.8-.84-2.39-1.27-5.98-1.27-10.76v-37.12c0-5.76-1.65-10.26-4.96-13.5-3.31-3.23-7.74-4.85-13.29-4.85s-10.06,1.69-13.5,5.06c-3.45,3.38-5.17,7.8-5.17,13.29v37.34c0,3.24-.11,5.66-.32,7.28-.21,1.62-.88,3.41-2,5.38-1.83,3.8-7.24,5.7-16.24,5.7s-14.27-1.9-16.24-5.7c-.99-2.11-1.58-3.97-1.79-5.59-.21-1.62-.32-4.04-.32-7.28v-74.67c0-3.09.11-5.45.32-7.07.21-1.61.88-3.41,2-5.38,1.97-3.51,7.38-5.27,16.24-5.27s13.85,1.62,15.82,4.85c1.4,2.39,2.11,5.27,2.11,8.65.56-.98,1.83-2.39,3.8-4.22,1.97-1.83,3.87-3.3,5.7-4.43,4.78-3.23,10.05-4.85,15.82-4.85Z"/>
        <path class="cls-1" d="m499.1,52.52c9.7,0,15.4,2.67,17.09,8.02.84,2.67,1.27,6.19,1.27,10.55s-.46,7.84-1.37,10.44c-.92,2.6-2.36,4.47-4.32,5.59-2.95,1.69-7.24,2.53-12.87,2.53l-13.5-.84v56.53c0,5.35-.67,9.32-2,11.92-1.34,2.6-3.37,4.32-6.12,5.17-2.74.84-6.3,1.27-10.65,1.27s-7.84-.46-10.44-1.37c-2.6-.91-4.47-2.39-5.59-4.43-1.13-2.04-1.79-3.9-2-5.59s-.32-4.15-.32-7.38v-55.9h-7.59c-3.66-.28-6.26-1.12-7.8-2.53-2.67-2.67-4.01-7.8-4.01-15.4,0-11.53,4.15-17.3,12.44-17.3h6.96v-11.18c0-10.83,3.87-20.64,11.6-29.43C467.6,4.4,478.78,0,493.41,0,496.64,0,499.06.11,500.68.32c1.62.21,3.48.88,5.59,2,3.8,1.83,5.7,7.24,5.7,16.24,0,6.75-1.2,11.6-3.59,14.55-1.97,2.25-5.06,3.52-9.28,3.8h-5.91c-5.2,0-7.8,1.76-7.8,5.27v11.6l13.71-1.27Zm29.32-33.96c0-3.23.11-5.66.32-7.28.21-1.62.88-3.48,2-5.59C532.57,1.9,537.98,0,546.98,0s13.92,1.9,16.03,5.7c1.12,2.11,1.79,4.01,2,5.7.21,1.69.32,4.15.32,7.38v97.66c0,5.06.42,8.26,1.27,9.6.84,1.34,2.71,2,5.59,2s4.82.11,5.8.32c.98.21,2.25.81,3.8,1.79,2.67,1.83,4.01,6.82,4.01,14.98,0,8.86-1.34,14.27-4.01,16.24-3.8,2.53-12.59,2.95-26.37,1.27-10.83-1.4-17.93-4.99-21.3-10.76-3.8-6.89-5.7-17.86-5.7-32.91V18.56Z"/>
        <path class="cls-1" d="m674.13,64.12c.84-7.87,6.4-11.81,16.66-11.81,5.48,0,9.56.42,12.23,1.27,2.67.84,4.54,2.32,5.59,4.43,1.05,2.11,1.69,3.98,1.9,5.59.21,1.62.32,4.04.32,7.28v73.83c0,3.24-.11,5.66-.32,7.28-.21,1.62-.81,3.48-1.79,5.59-1.97,3.66-6.79,5.48-14.45,5.48s-12.8-.95-15.4-2.85c-2.6-1.9-4.11-4.67-4.54-8.33-5.2,7.46-13.89,11.18-26.05,11.18s-23.45-5.55-33.86-16.66c-10.41-11.11-15.61-24.01-15.61-38.71s5.24-27.56,15.71-38.6c10.47-11.04,21.97-16.56,34.49-16.56,4.78,0,9.14.84,13.08,2.53,3.93,1.69,6.68,3.27,8.23,4.75,1.55,1.48,2.81,2.92,3.8,4.32Zm-38.39,43.87c0,4.64,1.83,8.83,5.48,12.55,3.66,3.73,8.08,5.59,13.29,5.59s9.53-1.9,12.97-5.7c3.44-3.8,5.17-7.98,5.17-12.55s-1.65-8.82-4.96-12.76c-3.31-3.94-7.74-5.91-13.29-5.91s-10.06,1.97-13.5,5.91c-3.45,3.94-5.17,8.23-5.17,12.87Z"/>
        <path class="cls-1" d="m860.48,40.08c3.65,7.46,5.48,15.75,5.48,24.89s-1.83,17.4-5.48,24.78c-3.66,7.38-8.37,13.26-14.13,17.61-11.67,9-23.77,13.5-36.28,13.5h-26.37v23.84c0,3.24-.11,5.66-.32,7.28-.21,1.62-.88,3.48-2,5.59-1.97,3.8-7.45,5.7-16.45,5.7-9.84,0-15.61-2.6-17.3-7.8-.84-2.39-1.27-6.05-1.27-10.97V27.42c0-3.23.11-5.66.32-7.28.21-1.61.88-3.48,2-5.59,1.97-3.8,7.45-5.7,16.45-5.7h45.14c12.37,0,24.4,4.5,36.07,13.5,5.76,4.36,10.47,10.27,14.13,17.72Zm-37.76,38.81c4.08-3.09,6.12-7.73,6.12-13.92s-2.04-10.86-6.12-14.03c-4.08-3.16-8.3-4.75-12.66-4.75h-26.37v37.34h26.58c4.22,0,8.37-1.55,12.45-4.64Z"/>
        <path class="cls-1" d="m952.4,64.12c.84-7.87,6.4-11.81,16.66-11.81,5.48,0,9.56.42,12.23,1.27,2.67.84,4.54,2.32,5.59,4.43,1.05,2.11,1.69,3.98,1.9,5.59.21,1.62.32,4.04.32,7.28v73.83c0,3.24-.11,5.66-.32,7.28-.21,1.62-.81,3.48-1.79,5.59-1.97,3.66-6.79,5.48-14.45,5.48s-12.8-.95-15.4-2.85c-2.6-1.9-4.11-4.67-4.54-8.33-5.2,7.46-13.89,11.18-26.05,11.18s-23.45-5.55-33.86-16.66c-10.41-11.11-15.61-24.01-15.61-38.71s5.24-27.56,15.71-38.6c10.47-11.04,21.97-16.56,34.49-16.56,4.78,0,9.14.84,13.08,2.53,3.93,1.69,6.68,3.27,8.23,4.75,1.55,1.48,2.81,2.92,3.8,4.32Zm-38.39,43.87c0,4.64,1.83,8.83,5.48,12.55,3.66,3.73,8.08,5.59,13.29,5.59s9.53-1.9,12.97-5.7c3.44-3.8,5.17-7.98,5.17-12.55s-1.65-8.82-4.96-12.76c-3.31-3.94-7.74-5.91-13.29-5.91s-10.06,1.97-13.5,5.91c-3.45,3.94-5.17,8.23-5.17,12.87Z"/>
        <path class="cls-1" d="m1089.09,53.58c2.67.84,4.88,2.29,6.64,4.32,1.76,2.04,2.64,5.31,2.64,9.81s-1.34,9.42-4.01,14.77c-2.67,5.35-6.54,8.02-11.6,8.02-2.53,0-4.96-.56-7.28-1.69-2.32-1.12-5.38-1.69-9.18-1.69s-7.35,1.34-10.65,4.01c-3.31,2.67-4.96,5.91-4.96,9.7v44.3c0,3.24-.11,5.66-.32,7.28-.21,1.62-.88,3.48-2,5.59-2.11,3.66-7.59,5.48-16.45,5.48-6.75,0-11.6-1.19-14.55-3.59-2.25-1.97-3.52-4.99-3.8-9.07v-80.16c0-3.23.11-5.66.32-7.28.21-1.61.81-3.41,1.79-5.38,1.97-3.8,7.45-5.7,16.45-5.7,8.44,0,13.71,1.62,15.82,4.85,1.55,2.25,2.32,4.57,2.32,6.96.7-.98,1.72-2.18,3.06-3.59,1.33-1.4,4.18-3.3,8.54-5.7,4.36-2.39,8.19-3.59,11.5-3.59s6.08.18,8.33.53c2.25.35,4.71.95,7.38,1.79Z"/>
        <path class="cls-1" d="m1182.11,89.65l-13.71-.84v29.11c0,3.8.6,6.54,1.79,8.23,1.19,1.69,3.44,2.53,6.75,2.53s5.83.11,7.59.32c1.76.21,3.62.88,5.59,2,3.23,1.83,4.85,6.54,4.85,14.13,0,8.86-1.97,14.27-5.91,16.24-2.11.99-3.97,1.58-5.59,1.79-1.62.21-3.98.32-7.07.32-14.63,0-25.73-3.3-33.33-9.91-7.59-6.61-11.39-17.79-11.39-33.54v-31.22c-2.67.42-5.56.63-8.65.63s-5.66-1.19-7.7-3.59c-2.04-2.39-3.06-6.47-3.06-12.23s.35-9.95,1.05-12.55c.7-2.6,1.69-4.46,2.95-5.59,2.25-1.83,5.06-2.74,8.44-2.74l6.96.84v-21.73c0-3.23.11-5.62.32-7.17.21-1.55.88-3.23,2-5.06,1.83-3.51,7.24-5.27,16.24-5.27,9.56,0,15.26,2.6,17.09,7.8.7,2.25,1.05,5.84,1.05,10.76v20.67c6.19-.56,10.86-.84,14.03-.84s5.55.11,7.17.32c1.61.21,3.48.88,5.59,2,3.65,1.83,5.48,7.24,5.48,16.24s-1.9,14.27-5.7,16.24c-2.11.99-3.98,1.58-5.59,1.79-1.62.21-4.04.32-7.28.32Z"/>
        <path class="cls-1" d="m1320.06,53.58c8.3,3.66,12.45,8.09,12.45,13.29,0,2.53-.56,4.92-1.69,7.17-1.13,2.25-1.69,3.45-1.69,3.59l-55.27,123.61c-1.13,2.67-2.08,4.71-2.85,6.12-.77,1.4-2,2.74-3.69,4.01-1.69,1.27-3.8,1.9-6.33,1.9s-6.26-1.05-11.18-3.16c-8.3-3.66-12.45-8.02-12.45-13.08,0-3.38,6.75-19.48,20.25-48.3l-41.98-70.66c-2.81-4.64-4.22-8.08-4.22-10.34,0-4.5,3.8-9,11.39-13.5,4.78-2.81,8.51-4.22,11.18-4.22s4.85.56,6.54,1.69c1.69,1.13,2.92,2.29,3.69,3.48.77,1.2,4.64,7.74,11.6,19.62,6.96,11.89,13.61,22.96,19.93,33.22.7-2.25,4.5-10.93,11.39-26.05,6.89-15.12,10.58-23.17,11.07-24.15.49-.98,1.3-2.18,2.43-3.59,1.83-2.39,4.39-3.59,7.7-3.59s7.2.99,11.71,2.95Z"/>
      </g>
      <g>
        <path class="cls-2" d="m37.64,8.09C35.75,2.71,29.7,0,19.51,0,17.21,0,7.21-.48,2.47,5.91c-.1.14-.96,1.31-1.56,2.85-3.65,9.45,3.85,29.44,19.22,43.69,3.76,3.48,9.81,8.32,18.61,12.38V19.45c0-5.1-.37-8.88-1.09-11.36Z"/>
        <path class="cls-1" d="m38.74,83.28v61.18c0,3.49-.11,6.05-.33,7.65-.22,1.6-.91,3.5-2.08,5.68-2.04,3.93-7.72,5.9-17.04,5.9-10.2,0-16.17-2.77-17.92-8.3-.87-2.33-1.31-6.04-1.31-11.14V49.02c9.89,14.32,23.17,26.12,38.67,34.25Z"/>
        <path class="cls-1" d="m164.68,21.83C150.33,2.84,127.36.42,122.42,0h-46.76c-9.32,0-15,1.97-17.04,5.9-1.17,2.18-1.86,4.12-2.08,5.79-.22,1.68-.33,4.19-.33,7.54v52.87c10.23,3.23,21.12,4.97,32.42,4.97,2.1,0,4.18-.06,6.25-.18v-38.22h27.31c4.51,0,8.88,1.64,13.11,4.92,4.22,3.28,6.34,8.12,6.34,14.53,0,1.92-.19,3.69-.57,5.32,12.12-6.78,22.79-15.83,31.43-26.58h0c-1.49-4.52-3.89-9.81-7.84-15.03Z"/>
        <path class="cls-1" d="m176.19,61.65c0,9.47-1.83,18.03-5.5,25.67-3.67,7.65-8.39,13.73-14.18,18.24-11.71,9.32-23.84,13.98-36.39,13.98h-26.45v24.69c0,3.35-.11,5.86-.32,7.54-.21,1.68-.88,3.61-2.01,5.79-1.98,3.93-7.48,5.9-16.5,5.9-9.88,0-15.66-2.69-17.35-8.08-.85-2.47-1.27-6.26-1.27-11.36v-53.47c9.91,3.23,20.45,4.97,31.4,4.97,36.35,0,68.35-19.22,86.99-48.36,1.06,4.58,1.59,9.41,1.59,14.49Z"/>
      </g>
    </g>
  </g>
</svg>