<?xml version="1.0" encoding="UTF-8"?>
<svg id="Layer_2" data-name="Layer 2" xmlns="http://www.w3.org/2000/svg" viewBox="0 0 1000.21 929.25">
  <defs>
    <style>
      .cls-1 {
        fill: #fbaf00;
      }

      .cls-2 {
        fill: #62bbc1;
      }

      .cls-3 {
        fill: #ec058e;
      }
    </style>
  </defs>
  <g id="Layer_1-2" data-name="Layer 1">
    <g>
      <path class="cls-1" d="m213.71,45.94C202.96,15.36,168.63.05,110.76.05,97.71.05,40.95-2.7,14.01,33.54c-.59.79-5.46,7.43-8.84,16.2-20.71,53.66,21.84,167.12,109.08,248,21.34,19.78,55.72,47.22,105.67,70.31V110.44c0-28.93-2.08-50.43-6.21-64.5Z"/>
      <path class="cls-2" d="m219.92,472.77v347.33c0,19.84-.62,34.32-1.86,43.41-1.24,9.11-5.18,19.85-11.79,32.25-11.59,22.33-43.84,33.49-96.75,33.49-57.89,0-91.79-15.7-101.71-47.13-4.96-13.22-7.44-34.31-7.44-63.26V278.31c56.16,81.29,131.53,148.3,219.55,194.46Z"/>
      <path class="cls-3" d="m934.87,123.95C853.43,16.15,723.02,2.37,694.97.05h-265.44c-52.93,0-85.18,11.16-96.75,33.49-6.63,12.4-10.55,23.37-11.79,32.87-1.24,9.51-1.86,23.78-1.86,42.79v300.15c58.08,18.33,119.91,28.22,184.05,28.22,11.92,0,23.75-.34,35.5-1.01v-216.96h155.05c25.62,0,50.43,9.3,74.42,27.91,23.98,18.6,35.98,46.1,35.98,82.48,0,10.89-1.07,20.96-3.22,30.22,68.78-38.48,129.36-89.88,178.44-150.91h0c-8.47-25.68-22.09-55.71-44.48-85.35Z"/>
      <path class="cls-2" d="m1000.21,349.99c0,53.76-10.41,102.33-31.23,145.75-20.83,43.41-47.66,77.95-80.48,103.57-66.48,52.93-135.35,79.38-206.61,79.38h-150.15v140.17c0,19.03-.6,33.29-1.8,42.79-1.2,9.52-5.01,20.47-11.41,32.87-11.22,22.33-42.46,33.49-93.69,33.49-56.06,0-88.89-15.29-98.5-45.89-4.81-14.05-7.21-35.55-7.21-64.5v-303.55c56.25,18.33,116.12,28.22,178.24,28.22,206.36,0,388.03-109.13,493.84-274.56,6,25.99,9.01,53.41,9.01,82.26Z"/>
    </g>
  </g>
</svg>